<?xml version="1.0" encoding="utf-8"?>
<!-- Generator: Adobe Illustrator 25.2.0, SVG Export Plug-In . SVG Version: 6.00 Build 0)  -->
<svg version="1.0" id="Layer_1" xmlns="http://www.w3.org/2000/svg" xmlns:xlink="http://www.w3.org/1999/xlink" x="0px" y="0px"
	 viewBox="0 0 1280 720" style="enable-background:new 0 0 1280 720;" xml:space="preserve">
<g>
	<rect x="0" y="0" class="st1" width="152" height="59"/>
	<text transform="matrix(1 0 0 1 153 417.52)" class="st2 st3">cube1&amp;&amp;rectangle</text>
</g>
<g>
	<rect x="880" y="379" class="st1" width="152" height="59"/>
	<text transform="matrix(1 0 0 1 880 387.52)" class="st2 st3">cube1&amp;&amp;rectangle</text>
</g>
<g>
	<rect x="574.8" y="508" class="st1" width="152" height="59"/>
	<text transform="matrix(1 0 0 1 574.75 516.52)" class="st2 st3">cube1&amp;&amp;rectangle</text>
</g>
<g>
	<ellipse class="st4" cx="386" cy="177.5" rx="69" ry="65.5"/>
	<text transform="matrix(1 0 0 1 357 175)" class="st2 st3">player&amp;&amp;ball1</text>
</g>
<g>
	<ellipse class="st4" cx="757" cy="186.5" rx="69" ry="65.5"/>
	<text transform="matrix(1 0 0 1 728 184)" class="st2 st3">pool&amp;&amp;ball2</text>
</g>
<g>
	<ellipse class="st5" cx="569.5" cy="321.5" rx="61" ry="57.5"/>
	<text transform="matrix(1 0 0 1 546 323.5)" class="st2 st3">pool&amp;&amp;ball3</text>
</g>
</svg>
