<?xml version="1.0" encoding="utf-8"?>
<!-- Generator: Adobe Illustrator 25.2.0, SVG Export Plug-In . SVG Version: 6.00 Build 0)  -->
<svg version="1.1" id="Layer_1" xmlns="http://www.w3.org/2000/svg" xmlns:xlink="http://www.w3.org/1999/xlink" x="0px" y="0px"
	 viewBox="0 0 1280 720" style="enable-background:new 0 0 1280 720;" xml:space="preserve">
<style type="text/css">
	.st0{fill:#FFFFFF;stroke:#000000;stroke-miterlimit:10;}
	.st1{fill:none;}
	.st2{font-family:'MyriadPro-Regular';}
	.st3{font-size:12px;}
	.st4{fill:#3F67B1;}
	.st5{fill:#3F67B1;stroke:#000000;stroke-miterlimit:10;}
</style>
<g>
	<rect x="115.5" y="376.5" class="st0" width="219" height="122"/>
	<rect x="153" y="409" class="st1" width="152" height="59"/>
	<text transform="matrix(1 0 0 1 153 417.52)" class="st2 st3">cube1&amp;rectangle</text>
</g>
<g>
	<rect x="878.5" y="347.5" class="st0" width="83" height="83"/>
	<rect x="901" y="379" class="st1" width="152" height="59"/>
	<text transform="matrix(1 0 0 1 901 387.52)" class="st2 st3">cube1&amp;rectangle</text>
</g>
<g>
	<rect x="487.5" y="459.5" class="st0" width="142" height="122"/>
	<rect x="509" y="491" class="st1" width="152" height="59"/>
	<text transform="matrix(1 0 0 1 509 499.52)" class="st2 st3">cube1&amp;rectangle</text>
</g>
<g>
	<ellipse class="st4" cx="386" cy="177.5" rx="69" ry="65.5"/>
	<text transform="matrix(1 0 0 1 357 175)" class="st2 st3">player&amp;ball1</text>
</g>
<g>
	<ellipse class="st4" cx="757" cy="186.5" rx="69" ry="65.5"/>
	<text transform="matrix(1 0 0 1 728 184)" class="st2 st3">pool&amp;ball2</text>
</g>
<g>
	<ellipse class="st5" cx="569.5" cy="331" rx="61" ry="57.5"/>
	<text transform="matrix(1 0 0 1 546 333)" class="st2 st3">pool&amp;ball3</text>
</g>
</svg>
